HIERARCHY
ROOT Hips
{
	OFFSET -21.947001 39.810204 44.525997
	CHANNELS 6 Xposition Yposition Zposition Zrotation Xrotation Yrotation
	JOINT Chest
	{
		OFFSET -0.201599 0.334099 6.453201
		CHANNELS 6 Xposition Yposition Zposition Zrotation Xrotation Yrotation
		JOINT Chest2
		{
			OFFSET 0.000000 0.000000 3.568001
			CHANNELS 6 Xposition Yposition Zposition Zrotation Xrotation Yrotation
			JOINT Neck
			{
				OFFSET 0.000000 0.000000 8.296402
				CHANNELS 6 Xposition Yposition Zposition Zrotation Xrotation Yrotation
				JOINT Head
				{
					OFFSET 0.000000 0.000000 2.173901
					CHANNELS 6 Xposition Yposition Zposition Zrotation Xrotation Yrotation
					End Site
					{
						OFFSET 0.000000 0.000000 7.891998
					}
				}
			}
			JOINT LeftCollar
			{
				OFFSET 1.927601 0.221401 6.049000
				CHANNELS 6 Xposition Yposition Zposition Zrotation Xrotation Yrotation
				JOINT LeftShoulder
				{
					OFFSET 4.959700 0.000000 0.000000
					CHANNELS 6 Xposition Yposition Zposition Zrotation Xrotation Yrotation
					JOINT LeftElbow
					{
						OFFSET 0.000000 0.000000 -8.654202
						CHANNELS 6 Xposition Yposition Zposition Zrotation Xrotation Yrotation
						JOINT LeftWrist
						{
							OFFSET 0.000000 0.000000 -13.864101
							CHANNELS 6 Xposition Yposition Zposition Zrotation Xrotation Yrotation
							End Site
							{
								OFFSET 0.000000 0.000000 -2.173901
							}
						}
					}
				}
			}
			JOINT RightCollar
			{
				OFFSET -3.155701 -0.764999 6.687801
				CHANNELS 6 Xposition Yposition Zposition Zrotation Xrotation Yrotation
				JOINT RightShoulder
				{
					OFFSET -3.592899 0.000000 0.000000
					CHANNELS 6 Xposition Yposition Zposition Zrotation Xrotation Yrotation
					JOINT RightElbow
					{
						OFFSET 0.000000 0.000000 -10.352398
						CHANNELS 6 Xposition Yposition Zposition Zrotation Xrotation Yrotation
						JOINT RightWrist
						{
							OFFSET 0.000000 0.000000 -12.750301
							CHANNELS 6 Xposition Yposition Zposition Zrotation Xrotation Yrotation
							End Site
							{
								OFFSET 0.000000 0.000000 -2.173901
							}
						}
					}
				}
			}
		}
	}
	JOINT LeftHip
	{
		OFFSET 2.460600 -0.518101 -2.735500
		CHANNELS 6 Xposition Yposition Zposition Zrotation Xrotation Yrotation
		JOINT LeftKnee
		{
			OFFSET 0.000000 -0.000004 -17.005899
			CHANNELS 6 Xposition Yposition Zposition Zrotation Xrotation Yrotation
			JOINT LeftAnkle
			{
				OFFSET 0.000000 0.000000 -19.194401
				CHANNELS 6 Xposition Yposition Zposition Zrotation Xrotation Yrotation
				End Site
				{
					OFFSET 0.000000 -8.134600 0.000000
				}
			}
		}
	}
	JOINT RightHip
	{
		OFFSET -3.115499 -0.679600 -2.320301
		CHANNELS 6 Xposition Yposition Zposition Zrotation Xrotation Yrotation
		JOINT RightKnee
		{
			OFFSET 0.000000 -0.000004 -17.680401
			CHANNELS 6 Xposition Yposition Zposition Zrotation Xrotation Yrotation
			JOINT RightAnkle
			{
				OFFSET 0.000000 0.000000 -16.993797
				CHANNELS 6 Xposition Yposition Zposition Zrotation Xrotation Yrotation
				End Site
				{
					OFFSET 0.000000 -8.842300 0.000000
				}
			}
		}
	}
}
MOTION
Frames: 9
Frame Time: 0.041667
-35.106598 15.756702 26.103092 2449.667782 -1.478432 5.121559 -0.201601 0.334102 6.453204 -54.153561 3.196550 6.969929 -0.000000 0.000003 3.567997 8.795644 -2.366189 0.665257 -0.000001 0.000006 8.296394 154.572672 -202.091842 193.266882 -0.000001 0.000002 2.173900 -0.605763 4.466032 -1.344099 1.927601 0.221402 6.049001 -25.146989 6.704178 -5.882123 4.959703 0.000002 0.000001 143.736577 199.079934 139.436126 -0.000008 -0.000007 -8.654194 -27.877188 -30.477472 13.446704 0.000005 -0.000002 -13.864100 4083.910206 -165.794509 166.925247 -3.155704 -0.765004 6.687799 22.319916 -1.069733 -3.331607 -3.592903 0.000010 0.000002 -199.853712 133.310608 238.486765 -0.000005 -0.000005 -10.352396 -278.800781 -42.082110 -303.737747 0.000008 -0.000001 -12.750299 -12.626347 173.256341 -124.886157 2.460594 -0.518105 -2.735503 62.853573 -38.023407 40.886407 -0.000002 0.000004 -17.005898 -340.118887 167.634070 -56.825593 -0.000001 0.000003 -19.194397 529.428125 122.615979 356.526804 -3.115499 -0.679595 -2.320299 -23.157178 -16.994947 -6.951145 -0.000005 -0.000004 -17.680393 -773.009337 180.907218 -285.089145 0.000003 0.000003 -16.993793 1053.604764 45.834732 -467.116146
-35.087597 15.769804 26.096491 2449.524184 -1.678158 4.857959 -0.201597 0.334104 6.453201 -53.463589 3.150910 6.895762 0.000003 -0.000000 3.567994 8.600339 -2.246808 0.591950 0.000000 -0.000001 8.296408 153.704938 -202.154939 194.766464 0.000002 0.000002 2.173895 -0.620262 4.698659 -1.225289 1.927604 0.221404 6.049002 -25.069656 6.412265 -5.989256 4.959700 0.000001 0.000007 144.585420 196.982997 138.756618 -0.000010 -0.000009 -8.654194 -29.473246 -33.431689 14.157474 0.000004 -0.000002 -13.864100 4085.246081 -164.034670 172.263832 -3.155707 -0.764999 6.687801 22.563798 -1.050270 -3.186118 -3.592900 0.000005 0.000002 -199.258447 134.820653 239.599758 0.000000 -0.000003 -10.352402 -273.730295 -44.118494 -297.386054 0.000003 -0.000004 -12.750294 -18.129275 171.242009 -120.838792 2.460598 -0.518096 -2.735500 62.698172 -37.826233 40.697966 -0.000001 -0.000009 -17.005901 -339.913790 167.562039 -56.812028 0.000000 0.000003 -19.194401 529.558882 122.600939 356.575763 -3.115492 -0.679587 -2.320306 -23.096742 -16.969916 -6.708549 -0.000007 -0.000008 -17.680393 -772.810005 180.846211 -285.073108 0.000002 -0.000004 -16.993786 1053.478979 45.788345 -467.222642
-35.059399 15.782001 26.086693 2449.554565 -1.968043 4.588694 -0.201599 0.334105 6.453193 -52.684217 3.386531 6.736736 0.000006 0.000001 3.568001 8.358751 -2.282078 0.630402 -0.000001 0.000001 8.296393 152.658280 -202.103781 196.384154 0.000001 0.000000 2.173905 -0.644513 4.984086 -1.109775 1.927597 0.221406 6.049002 -24.960793 6.045588 -6.115439 4.959702 -0.000001 0.000001 145.716499 194.668328 137.934536 -0.000003 0.000002 -8.654194 -30.054762 -36.724561 15.264877 0.000005 -0.000001 -13.864109 4086.871338 -161.970027 178.014100 -3.155708 -0.764999 6.687796 22.891179 -1.051091 -3.053215 -3.592894 0.000009 0.000000 -198.591725 136.700390 240.797500 0.000002 -0.000005 -10.352395 -268.056074 -44.630655 -290.157364 0.000007 0.000001 -12.750301 -25.746429 169.471309 -116.050269 2.460598 -0.518094 -2.735507 62.415225 -37.580664 40.448397 0.000000 0.000002 -17.005899 -339.700114 167.602092 -56.809050 0.000001 0.000002 -19.194401 529.784552 122.563442 356.661823 -3.115496 -0.679587 -2.320307 -23.150504 -16.868448 -6.397167 -0.000004 -0.000005 -17.680397 -772.646845 180.795818 -285.051033 0.000003 0.000001 -16.993792 1053.339862 45.725080 -467.367387
-35.021904 15.792803 26.073694 2449.363756 -2.044081 4.303940 -0.201598 0.334102 6.453199 -51.396917 3.451355 6.351174 0.000001 0.000004 3.568002 8.079943 -2.236634 0.607884 -0.000004 -0.000002 8.296398 151.442506 -201.914776 198.102533 -0.000001 -0.000000 2.173892 -0.677521 5.319256 -0.992122 1.927599 0.221403 6.048994 -24.701738 5.554444 -6.286626 4.959697 0.000002 0.000009 146.981778 192.120271 136.940020 -0.000001 0.000000 -8.654195 -29.754100 -40.338015 16.791747 0.000002 -0.000004 -13.864103 4089.429436 -159.503017 184.938409 -3.155701 -0.765004 6.687800 23.298839 -1.069699 -2.921766 -3.592900 0.000003 0.000000 -197.838902 138.954448 242.064773 -0.000009 -0.000007 -10.352391 -263.795949 -47.336281 -283.832336 0.000009 -0.000009 -12.750300 -31.481933 168.154900 -111.562493 2.460597 -0.518106 -2.735501 62.611675 -37.441591 40.510894 -0.000002 -0.000006 -17.005898 -339.479007 167.764759 -56.819729 0.000000 -0.000000 -19.194393 530.131689 122.497995 356.791242 -3.115492 -0.679600 -2.320303 -22.990516 -16.997315 -6.156105 -0.000005 -0.000010 -17.680397 -772.517181 180.754946 -285.021964 0.000003 0.000002 -16.993786 1053.188505 45.643733 -467.554480
-34.974899 15.801405 26.057394 2449.206389 -2.085225 3.967902 -0.201597 0.334102 6.453201 -49.844292 3.514470 5.874571 0.000003 0.000008 3.568001 7.767470 -2.185890 0.583287 0.000000 -0.000002 8.296391 150.082315 -201.567243 199.894912 -0.000003 0.000003 2.173898 -0.715956 5.694778 -0.866397 1.927604 0.221400 6.048995 -24.582911 5.034179 -6.440262 4.959701 0.000006 0.000003 148.619630 189.374494 135.650480 -0.000003 0.000005 -8.654199 -28.620236 -44.225786 18.787141 0.000000 0.000006 -13.864100 4091.248342 -157.534693 188.813845 -3.155704 -0.765008 6.687801 23.789974 -1.099186 -2.787117 -3.592904 0.000005 0.000011 -197.013856 141.578087 243.413243 -0.000004 -0.000009 -10.352391 -259.452905 -48.585403 -277.091267 0.000002 -0.000003 -12.750296 -39.149490 167.395929 -107.153661 2.460597 -0.518093 -2.735502 62.928076 -37.276676 40.680955 -0.000001 -0.000005 -17.005901 -339.246972 168.054127 -56.846886 -0.000003 0.000003 -19.194403 530.618163 122.398766 356.964865 -3.115490 -0.679591 -2.320298 -22.822450 -17.190212 -5.860280 -0.000005 -0.000009 -17.680399 -772.414509 180.722202 -284.987731 0.000001 0.000000 -16.993788 1053.027968 45.544968 -467.784848
-34.917999 15.807203 26.037495 2449.085085 -2.077503 3.572497 -0.201602 0.334098 6.453202 -48.017295 3.557339 5.297939 0.000002 0.000002 3.568000 7.427147 -2.127217 0.557685 -0.000005 0.000010 8.296399 148.649888 -200.995119 201.711114 -0.000005 0.000002 2.173900 -0.763869 6.153493 -0.727016 1.927600 0.221408 6.048998 -24.511020 4.441433 -6.983705 4.959701 -0.000005 0.000002 150.615015 186.577942 134.394313 0.000010 0.000000 -8.654193 -26.697591 -48.374238 21.280001 0.000003 0.000000 -13.864100 4094.468257 -155.117721 194.144439 -3.155702 -0.764996 6.687802 24.371097 -1.129843 -2.648013 -3.592896 0.000006 0.000004 -196.158320 144.581103 244.883483 -0.000001 -0.000009 -10.352389 -255.889267 -49.777462 -270.729683 0.000004 -0.000003 -12.750294 -47.160807 167.189917 -103.062234 2.460597 -0.518101 -2.735503 63.365885 -37.083877 40.968380 0.000002 -0.000002 -17.005898 -338.996823 168.469307 -56.892252 -0.000001 0.000004 -19.194395 531.257195 122.258843 357.179661 -3.115498 -0.679593 -2.320302 -22.656330 -17.464188 -5.507871 -0.000005 -0.000010 -17.680397 -772.327465 180.695550 -284.952432 0.000002 -0.000002 -16.993792 1052.865792 45.432380 -468.052537
-34.850605 15.809498 26.013594 2449.247698 -2.196245 3.080546 -0.201599 0.334102 6.453207 -46.151899 3.672507 4.790057 0.000001 0.000002 3.567998 7.063595 -2.058229 0.531391 -0.000003 -0.000001 8.296397 147.144760 -200.291759 203.511456 0.000000 0.000001 2.173898 -0.803496 6.558208 -0.562489 1.927598 0.221399 6.048993 -24.390156 3.751733 -6.342535 4.959698 -0.000003 -0.000003 152.609485 183.113451 131.750565 0.000000 -0.000001 -8.654191 -23.862815 -52.516508 24.465693 0.000004 0.000003 -13.864100 4097.294316 -152.768505 197.136786 -3.155707 -0.765000 6.687796 25.041313 -1.146699 -2.731820 -3.592900 0.000002 0.000006 -195.453431 148.005910 246.775418 0.000001 -0.000005 -10.352395 -253.360458 -51.037851 -265.035382 0.000001 -0.000003 -12.750296 -55.289688 167.428263 -99.418198 2.460604 -0.518102 -2.735500 63.554398 -36.740998 41.168900 0.000003 -0.000005 -17.005901 -338.711130 169.002335 -56.957347 0.000004 0.000004 -19.194403 532.054087 122.071272 357.427269 -3.115492 -0.679591 -2.320300 -22.703223 -17.665345 -4.979194 -0.000002 -0.000014 -17.680397 -772.240367 180.673489 -284.921505 0.000001 -0.000002 -16.993795 1052.711922 45.311024 -468.349350
-34.772003 15.807804 25.985094 2449.252288 -2.084226 2.533604 -0.201601 0.334097 6.453201 -43.801289 3.637065 4.036619 0.000001 0.000001 3.567998 6.908718 -1.981511 0.525638 -0.000002 -0.000006 8.296398 145.449958 -199.423943 205.206395 0.000001 -0.000002 2.173909 -0.844281 6.935095 -0.363576 1.927600 0.221401 6.049000 -23.685315 5.648218 -6.948807 4.959702 0.000000 -0.000003 154.440331 182.492532 128.613500 0.000005 0.000000 -8.654205 -20.047189 -56.671835 28.359412 -0.000002 0.000000 -13.864096 4100.529094 -150.089486 199.524237 -3.155706 -0.764998 6.687804 25.567614 -1.139632 -1.675564 -3.592899 0.000002 0.000008 -194.155094 151.459732 247.589713 -0.000004 -0.000004 -10.352396 -251.776264 -52.502940 -259.892250 -0.000004 -0.000006 -12.750292 -63.229978 168.071544 -96.803103 2.460596 -0.518108 -2.735502 64.129609 -36.473862 41.660753 -0.000004 -0.000001 -17.005903 -338.373746 169.644072 -57.042120 -0.000000 0.000005 -19.194397 533.006489 121.829633 357.692062 -3.115497 -0.679597 -2.320304 -22.621476 -18.129016 -4.487800 -0.000003 -0.000000 -17.680395 -772.133269 180.660252 -284.901260 0.000000 0.000005 -16.993784 1052.572914 45.184580 -468.670205
-34.681297 15.801605 25.951193 2449.267587 -1.853971 1.904355 -0.201600 0.334101 6.453199 -41.128035 3.481258 3.166524 -0.000002 0.000008 3.567993 6.467954 -1.873058 0.499877 -0.000002 0.000010 8.296399 144.146867 -198.385809 206.729704 -0.000000 0.000005 2.173903 -0.892085 7.249354 -0.118192 1.927600 0.221414 6.049003 -23.440123 5.645034 -6.987488 4.959703 0.000005 0.000002 157.102889 179.915160 125.608900 -0.000008 0.000004 -8.654203 -15.060866 -60.628427 33.111842 -0.000002 -0.000007 -13.864100 4104.818234 -146.900007 202.786103 -3.155703 -0.764989 6.687805 26.438506 -1.075794 -2.215784 -3.592897 -0.000002 0.000004 -193.791537 155.604031 250.433913 0.000001 0.000001 -10.352392 -251.825359 -54.311219 -256.060350 0.000004 -0.000005 -12.750298 -70.882522 168.914116 -93.953774 2.460596 -0.518100 -2.735501 64.840891 -36.197769 42.308944 -0.000003 -0.000008 -17.005898 -337.969918 170.386323 -57.145761 0.000004 0.000004 -19.194399 534.107133 121.529078 357.955215 -3.115499 -0.679596 -2.320300 -22.563771 -18.761073 -3.955704 -0.000004 -0.000013 -17.680395 -771.983879 180.662274 -284.897272 0.000002 0.000002 -16.993790 1052.457839 45.057559 -469.006086
